/* XPM */
static const char * a_xpm[] = {
"40 40 73 1",
" 	c None",
".	c #90340B",
"+	c #844141",
"@	c #0B6890",
"#	c #1E678E",
"$	c #2D658B",
"%	c #466082",
"&	c #5E5874",
"*	c #7C4850",
"=	c #903415",
"-	c #744D5D",
";	c #4C5E7E",
">	c #8D3722",
",	c #615671",
"'	c #5F5771",
")	c #555C79",
"!	c #5A5975",
"~	c #754C5B",
"{	c #824446",
"]	c #873D39",
"^	c #8F3516",
"/	c #8C3A27",
"(	c #804449",
"_	c #535D7B",
":	c #27658C",
"<	c #85403F",
"[	c #8F3619",
"}	c #804448",
"|	c #66546C",
"1	c #4E5E7D",
"2	c #366387",
"3	c #24668D",
"4	c #11688F",
"5	c #26668D",
"6	c #86403C",
"7	c #485F80",
"8	c #844140",
"9	c #25668C",
"0	c #605871",
"a	c #8F3510",
"b	c #406185",
"c	c #336489",
"d	c #744D5B",
"e	c #893C32",
"f	c #2F658A",
"g	c #734E5D",
"h	c #7B4951",
"i	c #15678F",
"j	c #863E3A",
"k	c #804549",
"l	c #834242",
"m	c #615770",
"n	c #4F5C7C",
"o	c #585A77",
"p	c #1B678E",
"q	c #545C79",
"r	c #7A4955",
"s	c #883E38",
"t	c #65556C",
"u	c #714F5F",
"v	c #585B77",
"w	c #29658C",
"x	c #734D5D",
"y	c #8F3613",
"z	c #4B5E7F",
"A	c #13688F",
"B	c #65546D",
"C	c #8E3620",
"D	c #6C5167",
"E	c #416184",
"F	c #22668D",
"G	c #3C6286",
"H	c #834143",
"........................................",
"........................................",
"........................................",
"........................................",
"........................................",
"........................................",
"........................................",
"........................................",
"........................................",
"........................................",
"........................................",
"........................................",
"........................................",
"........................................",
"........................................",
"..............+@@@@@@@#$%&*=............",
"..............-@@@@@@@@@@@@;>...........",
"..............,@@@@@@@@@@@@@'...........",
"..............)!~{]>^/(_@@@@:...........",
".......................<@@@@@[..........",
"...............}|1234@@@@@@@5...........",
".............67@@@@@@@@@@@@@%...........",
"............89@@@@@@@@@@@@@@0...........",
"...........ab@@@@cde^..f@@@@g...........",
"...........h@@@@ij....k@@@@@l...........",
"...........m@@@@n.....o@@@@p[...........",
"...........n@@@@)....g@@@@@%............",
"...........q@@@@#r>st4@@@@@0............",
"...........u@@@@@@@@@vw@@@@x............",
"...........yz@@@@@@ABs@@@@@l............",
"............CDE#FG,H.r@@@@p[............",
"........................................",
"........................................",
"........................................",
"........................................",
"........................................",
"........................................",
"........................................",
"........................................",
"........................................"};
