/* XPM */
static const char * c_xpm[] = {
"40 40 69 1",
" 	c None",
".	c #90340B",
"+	c #8F3619",
"@	c #794956",
"#	c #605871",
"$	c #456082",
"%	c #2F658A",
"&	c #1B678E",
"*	c #25668C",
"=	c #3D6285",
"-	c #525C7C",
";	c #724E5F",
">	c #8A3C32",
",	c #8F3516",
"'	c #704F61",
")	c #2D658B",
"!	c #0B6890",
"~	c #555C79",
"{	c #8B3A2B",
"]	c #495F80",
"^	c #6B5367",
"/	c #8C3824",
"(	c #17678F",
"_	c #63556F",
":	c #824143",
"<	c #8D3722",
"[	c #7D474E",
"}	c #4E5D7E",
"|	c #7C4750",
"1	c #565B78",
"2	c #24668D",
"3	c #804549",
"4	c #67546B",
"5	c #8B3B2D",
"6	c #804449",
"7	c #774A58",
"8	c #565B79",
"9	c #416184",
"0	c #6B5266",
"a	c #84413E",
"b	c #7C4851",
"c	c #7D464F",
"d	c #824446",
"e	c #7F4549",
"f	c #784A56",
"g	c #8A3A2F",
"h	c #11688F",
"i	c #4D5E7E",
"j	c #8F3510",
"k	c #883D36",
"l	c #6E5164",
"m	c #505E7C",
"n	c #535D7B",
"o	c #814347",
"p	c #8E381E",
"q	c #1E678E",
"r	c #873E38",
"s	c #27658C",
"t	c #85403D",
"u	c #406185",
"v	c #903415",
"w	c #7B4951",
"x	c #5D5973",
"y	c #406184",
"z	c #2A658B",
"A	c #15678F",
"B	c #3E6285",
"C	c #545C7A",
"D	c #873E3A",
"........................................",
"........................................",
"........................................",
"........................................",
"........................................",
"........................................",
"........................................",
"........................................",
"........................................",
"........................................",
"........................................",
"........................................",
"........................................",
"........................................",
"........................................",
"................+@#$%&*=-;>.............",
"..............,')!!!!!!!!!~.............",
".............{]!!!!!!!!!!!^.............",
"............/=!!!!(_:</[}!|.............",
"............1!!!!23......45.............",
"...........6!!!!!7......................",
"...........8!!!!9.......................",
"..........+*!!!!0.......................",
"..........a!!!!!b.......................",
"..........c!!!!!d.......................",
"..........e!!!!!f.......................",
"..........gh!!!!ij.....kl...............",
"...........m!!!!!nop<o_q^...............",
"...........rs!!!!!!!!!!!|...............",
"............tu!!!!!!!!!!5...............",
".............vwxyzAzBC'D................",
"........................................",
"........................................",
"........................................",
"........................................",
"........................................",
"........................................",
"........................................",
"........................................",
"........................................"};
