/* XPM */
static const char * d_xpm[] = {
"40 40 74 1",
" 	c None",
".	c #90340B",
"+	c #406185",
"@	c #0B6890",
"#	c #6E5063",
"$	c #8E381E",
"%	c #15678F",
"&	c #7F454B",
"*	c #814449",
"=	c #0E6890",
"-	c #8D3722",
";	c #705060",
">	c #3C6286",
",	c #5C5974",
"'	c #595A76",
")	c #7F464D",
"!	c #8F3516",
"~	c #754C5B",
"{	c #525C7C",
"]	c #30648A",
"^	c #1B678E",
"/	c #356488",
"(	c #853F3E",
"_	c #8C3926",
":	c #85403F",
"<	c #3F6184",
"[	c #24668D",
"}	c #7E464C",
"|	c #804449",
"1	c #22668D",
"2	c #326489",
"3	c #555B79",
"4	c #873D39",
"5	c #29658C",
"6	c #426083",
"7	c #7D464E",
"8	c #8A3C32",
"9	c #64566F",
"0	c #4E5D7E",
"a	c #416184",
"b	c #8D3824",
"c	c #456082",
"d	c #5A5A77",
"e	c #66546C",
"f	c #3B6387",
"g	c #903415",
"h	c #2C658B",
"i	c #695368",
"j	c #7B4951",
"k	c #6E5164",
"l	c #834242",
"m	c #873E3A",
"n	c #824446",
"o	c #63556F",
"p	c #804549",
"q	c #17678F",
"r	c #376388",
"s	c #26668D",
"t	c #794955",
"u	c #8B3A2B",
"v	c #714E60",
"w	c #734E5D",
"x	c #4F5C7C",
"y	c #3A6386",
"z	c #5E5874",
"A	c #605871",
"B	c #8C3824",
"C	c #784B57",
"D	c #4D5E7E",
"E	c #2A658B",
"F	c #1D678E",
"G	c #396387",
"H	c #5C5874",
"I	c #814347",
"........................................",
"........................................",
"........................................",
"........................................",
"........................................",
"........................................",
"........................................",
"........................................",
"..........................+@@@@#........",
".........................$%@@@@&........",
".........................*@@@@=-........",
".........................;@@@@>.........",
".........................,@@@@'.........",
".........................+@@@@#.........",
"........................$%@@@@).........",
"...............!~{]^/,(.*@@@@=_.........",
"..............:<@@@@@@[};@@@@>..........",
".............|1@@@@@@@@23@@@@'..........",
"............45@@@@67$89@@@@@@#..........",
"............0@@@@ab....c@@@@@)..........",
"...........&@@@@@*.....9@@@@=_..........",
"...........d@@@@c......e@@@@f...........",
"..........gh@@@@i......d@@@@'...........",
"..........4@@@@@j......>@@@@k...........",
"..........&@@@@@l.....m@@@@@)...........",
"..........)@@@@@n.....o@@@@=_...........",
"..........m@@@@@k....pq@@@@f............",
"...........r@@@@st$uv[@@@@@'............",
"...........w@@@@@@@@@xy@@@@k............",
"............z@@@@@@=AB%@@@@}............",
".............CDEFGH*.I@@@@=_............",
"........................................",
"........................................",
"........................................",
"........................................",
"........................................",
"........................................",
"........................................",
"........................................",
"........................................"};
