/* XPM */
static const char * f_xpm[] = {
"40 40 51 1",
" 	c None",
".	c #90340B",
"+	c #8C3824",
"@	c #6E5063",
"#	c #4D5E7E",
"$	c #2F658A",
"%	c #19678E",
"&	c #0B6890",
"*	c #436183",
"=	c #7F4549",
"-	c #5E5874",
";	c #873E3A",
">	c #22668D",
",	c #714F5F",
"'	c #565B78",
")	c #446082",
"!	c #844140",
"~	c #8F3516",
"{	c #8C392A",
"]	c #13688F",
"^	c #804549",
"/	c #794A54",
"(	c #2A658B",
"_	c #8F3510",
":	c #66556C",
"<	c #4F5C7C",
"[	c #784A56",
"}	c #17678F",
"|	c #8E371B",
"1	c #66546C",
"2	c #4F5D7D",
"3	c #5F5771",
"4	c #774B58",
"5	c #2E658A",
"6	c #65556C",
"7	c #515D7C",
"8	c #4E5E7D",
"9	c #68536A",
"0	c #29658C",
"a	c #873E38",
"b	c #883D33",
"c	c #784B57",
"d	c #2D658B",
"e	c #505E7C",
"f	c #4E5D7E",
"g	c #67546B",
"h	c #794956",
"i	c #873D39",
"j	c #883D36",
"k	c #2C658B",
"l	c #505D7C",
"........................................",
"........................................",
"........................................",
"........................................",
"........................................",
"........................................",
"........................................",
"........................................",
".................+@#$%&&&*..............",
"................=$&&&&&&&-..............",
"...............;>&&&&&&&&,..............",
"...............'&&&&)!~.................",
"..............{]&&&&^...................",
"............../&&&&(_...................",
"..............:&&&&<....................",
"...........[&&&&&&&&&&&}|...............",
"...........1&&&&&&&&&&&)................",
"...........2&&&&&&&&&&&3................",
".............4&&&&5.....................",
".............6&&&&7.....................",
".............8&&&&9.....................",
".............0&&&&/.....................",
"............a&&&&&b.....................",
"............c&&&&d......................",
"............1&&&&e......................",
"............f&&&&g......................",
"............(&&&&h......................",
"...........i&&&&&j......................",
"...........[&&&&k.......................",
"...........1&&&&l.......................",
"...........2&&&&g.......................",
"........................................",
"........................................",
"........................................",
"........................................",
"........................................",
"........................................",
"........................................",
"........................................",
"........................................"};
