/* XPM */
static const char * g_xpm[] = {
"40 40 98 2",
"  	c None",
". 	c #90340B",
"+ 	c #8F3510",
"@ 	c #764C59",
"# 	c #525C7C",
"$ 	c #30648A",
"% 	c #1B678E",
"& 	c #356488",
"* 	c #5A5975",
"= 	c #844140",
"- 	c #814347",
"; 	c #0B6890",
"> 	c #0E6890",
", 	c #8C3824",
"' 	c #853F3E",
") 	c #406185",
"! 	c #21678D",
"~ 	c #7D464E",
"{ 	c #705060",
"] 	c #3B6286",
"^ 	c #804448",
"/ 	c #24668D",
"( 	c #316489",
"_ 	c #555B79",
": 	c #585A77",
"< 	c #873D36",
"[ 	c #2A658B",
"} 	c #406184",
"| 	c #7C4851",
"1 	c #8E381E",
"2 	c #893B30",
"3 	c #605771",
"4 	c #6D5065",
"5 	c #4E5D7E",
"6 	c #3E6285",
"7 	c #8C3926",
"8 	c #903415",
"9 	c #7E474D",
"0 	c #7F454B",
"a 	c #804449",
"b 	c #62576F",
"c 	c #595A76",
"d 	c #446082",
"e 	c #65546D",
"f 	c #2C658B",
"g 	c #695368",
"h 	c #7B4853",
"i 	c #3D6285",
"j 	c #7F4549",
"k 	c #834242",
"l 	c #873E3A",
"m 	c #80444A",
"n 	c #824446",
"o 	c #62566E",
"p 	c #883D36",
"q 	c #6E5063",
"r 	c #15678F",
"s 	c #3B6387",
"t 	c #27658C",
"u 	c #794A54",
"v 	c #8B3B2D",
"w 	c #704F62",
"x 	c #754C5B",
"y 	c #4F5C7C",
"z 	c #3A6386",
"A 	c #615671",
"B 	c #5F5772",
"C 	c #8B3A2B",
"D 	c #804549",
"E 	c #794955",
"F 	c #2B658B",
"G 	c #1D678E",
"H 	c #396387",
"I 	c #5C5974",
"J 	c #784A56",
"K 	c #8F3516",
"L 	c #466082",
"M 	c #565B78",
"N 	c #8A3C32",
"O 	c #64566F",
"P 	c #863F3B",
"Q 	c #66546C",
"R 	c #814345",
"S 	c #8F3619",
"T 	c #883D33",
"U 	c #774A58",
"V 	c #495F80",
"W 	c #13688F",
"X 	c #774B59",
"Y 	c #7C4850",
"Z 	c #64566C",
"` 	c #605871",
" .	c #476081",
"..	c #376388",
"+.	c #20678D",
"@.	c #19678E",
"#.	c #3F6184",
"$.	c #8A3A2F",
". . . . . . . . . . . . . . . . . . . . . . . . . . . . . . . . . . . . . . . . ",
". . . . . . . . . . . . . . . . . . . . . . . . . . . . . . . . . . . . . . . . ",
". . . . . . . . . . . . . . . . . . . . . . . . . . . . . . . . . . . . . . . . ",
". . . . . . . . . . . . . . . . . . . . . . . . . . . . . . . . . . . . . . . . ",
". . . . . . . . . . . . . . . . . . . . . . . . . . . . . . . . . . . . . . . . ",
". . . . . . . . . . . . . . . . . . . . . . . . . . . . . . . . . . . . . . . . ",
". . . . . . . . . . . . . . . . . . . . . . . . . . . . . . . . . . . . . . . . ",
". . . . . . . . . . . . . . . . . . . . . . . . . . . . . . . . . . . . . . . . ",
". . . . . . . . . . . . . . . . . . . . . . . . . . . . . . . . . . . . . . . . ",
". . . . . . . . . . . . . . . . . . . . . . . . . . . . . . . . . . . . . . . . ",
". . . . . . . . . . . . . . . . . . . . . . . . . . . . . . . . . . . . . . . . ",
". . . . . . . . . . . . . . . . . . . . . . . . . . . . . . . . . . . . . . . . ",
". . . . . . . . . . . . . . . . . . . . . . . . . . . . . . . . . . . . . . . . ",
". . . . . . . . . . . . . . . . . . . . . . . . . . . . . . . . . . . . . . . . ",
". . . . . . . . . . . . . . . . . . . . . . . . . . . . . . . . . . . . . . . . ",
". . . . . . . . . . . . . . . . + @ # $ % & * = . - ; ; ; ; > , . . . . . . . . ",
". . . . . . . . . . . . . . . ' ) ; ; ; ; ; ; ! ~ { ; ; ; ; ] . . . . . . . . . ",
". . . . . . . . . . . . . . ^ / ; ; ; ; ; ; ; ; ( _ ; ; ; ; : . . . . . . . . . ",
". . . . . . . . . . . . . < [ ; ; ; ; } | 1 2 3 ; ; ; ; ; ; 4 . . . . . . . . . ",
". . . . . . . . . . . . . 5 ; ; ; ; 6 7 . . . 8 6 ; ; ; ; ; 9 . . . . . . . . . ",
". . . . . . . . . . . . 0 ; ; ; ; ; a . . . . . b ; ; ; ; > , . . . . . . . . . ",
". . . . . . . . . . . . c ; ; ; ; d . . . . . . e ; ; ; ; ] . . . . . . . . . . ",
". . . . . . . . . . . 8 f ; ; ; ; g . . . . . . c ; ; ; ; : . . . . . . . . . . ",
". . . . . . . . . . . < ; ; ; ; ; h . . . . . . i ; ; ; ; 4 . . . . . . . . . . ",
". . . . . . . . . . . j ; ; ; ; ; k . . . . . l ; ; ; ; ; 9 . . . . . . . . . . ",
". . . . . . . . . . . m ; ; ; ; ; n . . . . . o ; ; ; ; > , . . . . . . . . . . ",
". . . . . . . . . . . p ; ; ; ; ; q . . . . j r ; ; ; ; ] . . . . . . . . . . . ",
". . . . . . . . . . . . s ; ; ; ; t u 1 v w ! ; ; ; ; ; : . . . . . . . . . . . ",
". . . . . . . . . . . . x ; ; ; ; ; ; ; ; ; y z ; ; ; ; 4 . . . . . . . . . . . ",
". . . . . . . . . . . . . A ; ; ; ; ; ; > B C r ; ; ; ; D . . . . . . . . . . . ",
". . . . . . . . . . . . . . E 5 F G H I ^ . J ; ; ; ; [ K . . . . . . . . . . . ",
". . . . . . . . . . . . . . . . . . . . . + L ; ; ; ; e . . . . . . . . . . . . ",
". . . . . . . . . . . 8 M N . . . . . . 8 O ; ; ; ; [ v . . . . . . . . . . . . ",
". . . . . . . . . . . P ; / Q R 7 S T U V ; ; ; ; W | . . . . . . . . . . . . . ",
". . . . . . . . . . . X ; ; ; ; ; ; ; ; ; ; ; ; / Y . . . . . . . . . . . . . . ",
". . . . . . . . . . . Z ; ; ; ; ; ; ; ; ; ; W * T . . . . . . . . . . . . . . . ",
". . . . . . . . . . . 7 u `  ...+.@.f #.c { $.. . . . . . . . . . . . . . . . . ",
". . . . . . . . . . . . . . . . . . . . . . . . . . . . . . . . . . . . . . . . ",
". . . . . . . . . . . . . . . . . . . . . . . . . . . . . . . . . . . . . . . . ",
". . . . . . . . . . . . . . . . . . . . . . . . . . . . . . . . . . . . . . . . "};
