/* XPM */
static const char * h_xpm[] = {
"40 40 70 1",
" 	c None",
".	c #90340B",
"+	c #8F3619",
"@	c #1B678E",
"#	c #0B6890",
"$	c #7E474D",
"%	c #834244",
"&	c #0E6890",
"*	c #8C3A27",
"=	c #734E5D",
"-	c #3A6386",
";	c #605871",
">	c #585B77",
",	c #466082",
"'	c #6D5265",
")	c #834242",
"!	c #7A4954",
"~	c #555B79",
"{	c #336489",
"]	c #19678E",
"^	c #2D658B",
"/	c #515C7B",
"(	c #7D464F",
"_	c #883D36",
":	c #4D5E7E",
"<	c #754C5B",
"[	c #5A5A77",
"}	c #316489",
"|	c #2C658B",
"1	c #8F3516",
"2	c #3E6285",
"3	c #7C4850",
"4	c #8D3722",
"5	c #883D33",
"6	c #4E5E7D",
"7	c #85403D",
"8	c #396387",
"9	c #8C3824",
"0	c #7E464C",
"a	c #734D5D",
"b	c #7F464D",
"c	c #8B3B2D",
"d	c #605772",
"e	c #406185",
"f	c #734D5C",
"g	c #2F658A",
"h	c #685369",
"i	c #62566E",
"j	c #8F3613",
"k	c #1D678E",
"l	c #4A5F80",
"m	c #8B3929",
"n	c #8F3510",
"o	c #22668D",
"p	c #7A4955",
"q	c #386487",
"r	c #85403F",
"s	c #893C34",
"t	c #575B78",
"u	c #2E658A",
"v	c #6C5266",
"w	c #62566F",
"x	c #515D7C",
"y	c #7D474E",
"z	c #495F80",
"A	c #68536A",
"B	c #834143",
"C	c #8C392A",
"D	c #21678D",
"E	c #794A54",
"........................................",
"........................................",
"........................................",
"........................................",
"........................................",
"........................................",
"........................................",
"........................................",
"..............+@####$...................",
"..............%####&*...................",
"..............=####-....................",
"..............;####>....................",
"..............,####'....................",
".............+@####$....................",
".............)####&*....................",
".............=####-..!~{]^/(............",
".............;####>_:######&<...........",
".............,####[}########|1..........",
"............+@#####23456#####7..........",
"............)#####89...0#####)..........",
"............a#####0....b#####c..........",
"............d####e.....f####g...........",
"............,####h.....i####/...........",
"...........jk####(.....l####h...........",
"...........)#####m....no####p...........",
"...........a####q.....r#####s...........",
"...........d####t.....<####u............",
"...........,####v.....w####x............",
"..........jk####y.....z####A............",
"..........B#####C....nD####E............",
"..........f####8.....r#####5............",
"........................................",
"........................................",
"........................................",
"........................................",
"........................................",
"........................................",
"........................................",
"........................................",
"........................................"};
