/* XPM */
static const char * j_xpm[] = {
"40 40 53 1",
" 	c None",
".	c #90340B",
"+	c #8F3619",
"@	c #1B678E",
"#	c #0B6890",
"$	c #7E474D",
"%	c #834244",
"&	c #0E6890",
"*	c #8C3A27",
"=	c #734E5D",
"-	c #3A6386",
";	c #605871",
">	c #585B77",
",	c #466082",
"'	c #6D5265",
")	c #734D5C",
"!	c #396387",
"~	c #605771",
"{	c #575B78",
"]	c #476081",
"^	c #6C5266",
"/	c #8F3613",
"(	c #1D678E",
"_	c #7D474E",
":	c #834143",
"<	c #8C392A",
"[	c #605772",
"}	c #6C5166",
"|	c #7D464E",
"1	c #834242",
"2	c #734D5D",
"3	c #575A77",
"4	c #5C5974",
"5	c #5E5874",
"6	c #8D3824",
"7	c #29658C",
"8	c #7C4751",
"9	c #8E371B",
"0	c #844141",
"a	c #505D7C",
"b	c #426083",
"c	c #903415",
"d	c #535C7B",
"e	c #22668D",
"f	c #316489",
"g	c #336489",
"h	c #804449",
"i	c #893B30",
"j	c #13688F",
"k	c #2B658B",
"l	c #4C5E7E",
"m	c #6F5162",
"n	c #8D3722",
"........................................",
"........................................",
"........................................",
"........................................",
"........................................",
"........................................",
"........................................",
"....................+@####$.............",
"....................%####&*.............",
"....................=####-..............",
"....................;####>..............",
"....................,####'..............",
"........................................",
"........................................",
"...................)####!...............",
"...................~####{...............",
"...................]####^...............",
"................../(####_...............",
"..................:#####<...............",
"..................)####!................",
"..................[####{................",
"..................,####}................",
"................./(####|................",
".................1#####<................",
".................2####!.................",
".................[####3.................",
".................,####}.................",
"................/(####|.................",
"................1#####*.................",
"................2####!..................",
"................4####5..................",
"...............67####8..................",
".............90a####bc..................",
"............d######e:...................",
"............f#####gh....................",
"...........i##jklmn.....................",
"........................................",
"........................................",
"........................................",
"........................................"};
