/* XPM */
static const char * k_xpm[] = {
"40 40 70 1",
" 	c None",
".	c #90340B",
"+	c #8F3619",
"@	c #1B678E",
"#	c #0B6890",
"$	c #7E464D",
"%	c #834244",
"&	c #8C3A27",
"*	c #734E5D",
"=	c #396387",
"-	c #605871",
";	c #575A77",
">	c #466082",
",	c #6C5166",
"'	c #7D464E",
")	c #834242",
"!	c #8C392A",
"~	c #13688F",
"{	c #575B78",
"]	c #8B3B2D",
"^	c #4B5E7F",
"/	c #2F658A",
"(	c #7E464C",
"_	c #6C5266",
":	c #834143",
"<	c #366387",
"[	c #4A6080",
"}	c #893B30",
"|	c #7D474E",
"1	c #784B57",
"2	c #20678D",
"3	c #63556F",
"4	c #8F3613",
"5	c #8B3A2B",
"6	c #68536A",
"7	c #24668D",
"8	c #734D5D",
"9	c #2D658B",
"0	c #545C7A",
"a	c #3E6285",
"b	c #853F3E",
"c	c #605772",
"d	c #585A77",
"e	c #8D3720",
"f	c #3C6286",
"g	c #8F3516",
"h	c #1D678E",
"i	c #66546C",
"j	c #0E6890",
"k	c #784A56",
"l	c #3A6386",
"m	c #893D33",
"n	c #22668D",
"o	c #84413E",
"p	c #585B77",
"q	c #7D464F",
"r	c #11688F",
"s	c #6D5265",
"t	c #695368",
"u	c #515D7C",
"v	c #8F3510",
"w	c #4E5D7E",
"x	c #67546B",
"y	c #8A3B2C",
"z	c #326489",
"A	c #794955",
"B	c #734D5C",
"C	c #7F4549",
"D	c #15678F",
"E	c #85403F",
"........................................",
"........................................",
"........................................",
"........................................",
"........................................",
"........................................",
"........................................",
".............+@####$....................",
".............%#####&....................",
".............*####=.....................",
".............-####;.....................",
".............>####,.....................",
"............+@####'.....................",
"............)#####!.....................",
"............*####=....+-####~,..........",
"............-####{...]^####/(...........",
"............>####_..:<####[}............",
"...........+@####|.12####34.............",
"...........)#####56####71...............",
"...........8####90####ab................",
"...........c#########de.................",
"...........>########fg..................",
"..........4h#########i..................",
"..........)####j>#####k.................",
"..........8####lm9####no................",
"..........c####p.qr####l&...............",
"..........>####s..t#####uv..............",
".........4h####$..vw#####x..............",
".........:#####&...yz####jA.............",
".........B####=.....CD####nE............",
"........................................",
"........................................",
"........................................",
"........................................",
"........................................",
"........................................",
"........................................",
"........................................",
"........................................",
"........................................"};
