/* XPM */
static const char * n_xpm[] = {
"40 40 61 1",
" 	c None",
".	c #90340B",
"+	c #734D5C",
"@	c #0B6890",
"#	c #396387",
"$	c #7A4954",
"%	c #555B79",
"&	c #336489",
"*	c #19678E",
"=	c #2D658B",
"-	c #515C7B",
";	c #7D464F",
">	c #605771",
",	c #575A77",
"'	c #883D36",
")	c #4D5E7E",
"!	c #0E6890",
"~	c #754C5B",
"{	c #476081",
"]	c #5A5A77",
"^	c #316489",
"/	c #2C658B",
"(	c #8F3516",
"_	c #8F3613",
":	c #1D678E",
"<	c #3E6285",
"[	c #7C4850",
"}	c #8D3722",
"|	c #883D33",
"1	c #4E5E7D",
"2	c #85403D",
"3	c #834143",
"4	c #8C3824",
"5	c #7E464C",
"6	c #834242",
"7	c #7F464D",
"8	c #8B3B2D",
"9	c #406185",
"0	c #734D5D",
"a	c #2F658A",
"b	c #466082",
"c	c #685369",
"d	c #62566F",
"e	c #495F80",
"f	c #8B3929",
"g	c #8F3510",
"h	c #21678D",
"i	c #7A4955",
"j	c #386487",
"k	c #84413E",
"l	c #893C34",
"m	c #605772",
"n	c #575B78",
"o	c #2E658A",
"p	c #6C5266",
"q	c #515D7C",
"r	c #7D474E",
"s	c #68536A",
"t	c #8C392A",
"u	c #794A54",
"v	c #85403F",
"........................................",
"........................................",
"........................................",
"........................................",
"........................................",
"........................................",
"........................................",
"........................................",
"........................................",
"........................................",
"........................................",
"........................................",
"........................................",
"........................................",
"...........+@@@@#..$%&*=-;..............",
"...........>@@@@,')@@@@@@!~.............",
"...........{@@@@]^@@@@@@@@/(............",
".........._:@@@@@<[}|1@@@@@2............",
"..........3@@@@@#4...5@@@@@6............",
"..........+@@@@@5....7@@@@@8............",
"..........>@@@@9.....0@@@@a.............",
"..........b@@@@c.....d@@@@-.............",
"........._:@@@@;.....e@@@@c.............",
".........3@@@@@f....gh@@@@i.............",
".........+@@@@j.....k@@@@@l.............",
".........m@@@@n.....~@@@@o..............",
".........b@@@@p.....d@@@@q..............",
"........_:@@@@r.....e@@@@s..............",
"........3@@@@@t....gh@@@@u..............",
"........+@@@@#.....v@@@@@|..............",
"........................................",
"........................................",
"........................................",
"........................................",
"........................................",
"........................................",
"........................................",
"........................................",
"........................................",
"........................................"};
