/* XPM */
static const char * n0_xpm[] = {
"40 40 91 1",
" 	c None",
".	c #90340B",
"+	c #883D33",
"@	c #6D5265",
"#	c #4E5E7D",
"$	c #346488",
"%	c #1D678E",
"&	c #26668D",
"*	c #3C6286",
"=	c #5E5874",
"-	c #7E464C",
";	c #8D3722",
">	c #62566E",
",	c #1B678E",
"'	c #0B6890",
")	c #5B5974",
"!	c #8E3517",
"~	c #883E38",
"{	c #426182",
"]	c #5C5874",
"^	c #8B3A2C",
"/	c #3A6386",
"(	c #824446",
"_	c #4D5E7E",
":	c #29658C",
"<	c #744D5D",
"[	c #8C3A27",
"}	c #8C3824",
"|	c #6E5164",
"1	c #5D5874",
"2	c #754C5A",
"3	c #13688F",
"4	c #814449",
"5	c #4D5D7E",
"6	c #406184",
"7	c #8F3613",
"8	c #336489",
"9	c #63556F",
"0	c #19678E",
"a	c #794956",
"b	c #824244",
"c	c #64566C",
"d	c #535D7B",
"e	c #356488",
"f	c #5C5974",
"g	c #8F3619",
"h	c #21678D",
"i	c #5D5973",
"j	c #4C5E7E",
"k	c #3B6387",
"l	c #804449",
"m	c #734D5C",
"n	c #2C658B",
"o	c #515C7B",
"p	c #6F4F63",
"q	c #834143",
"r	c #873D36",
"s	c #685369",
"t	c #615770",
"u	c #8E371B",
"v	c #764C5A",
"w	c #7F464D",
"x	c #326489",
"y	c #25668C",
"z	c #505E7C",
"A	c #406185",
"B	c #2B658B",
"C	c #605771",
"D	c #525C7C",
"E	c #3E6285",
"F	c #754C5B",
"G	c #0E6890",
"H	c #844040",
"I	c #8C3926",
"J	c #764B58",
"K	c #575B78",
"L	c #8E381E",
"M	c #7E474D",
"N	c #8A3A2F",
"O	c #8E3620",
"P	c #2E658A",
"Q	c #764C59",
"R	c #27658C",
"S	c #7C4851",
"T	c #704F62",
"U	c #863F39",
"V	c #66556C",
"W	c #426083",
"X	c #17678F",
"Y	c #446082",
"Z	c #814347",
"........................................",
"........................................",
"........................................",
"........................................",
"........................................",
"........................................",
"........................................",
"........................................",
"................+@#$%&*=-...............",
"..............;>,'''''''')!.............",
".............~{'''''''''''].............",
"............^/'''''''''''''(............",
"............_'''':<[}|'''''1............",
"...........2''''34....5''''6............",
"..........78''''].....9''''0............",
"..........a'''''b.....c''''3............",
"..........d''''e......f'''',............",
".........gh''''i......j''''k............",
".........l'''''m......n''''o............",
".........p'''''q.....r'''''s............",
".........t''''3u.....v'''''w............",
".........d''''x......f''''y!............",
".........z''''A.....!B''''C.............",
".........D''''E.....F''''GH.............",
".........>'''',I...^e''''f..............",
".........J'''''K+LMA''''nN..............",
".........OP'''''''''''',l...............",
"..........Q'''''''''''RS................",
"...........T%''''''''zU.................",
"............UVWnXPYcZ...................",
"........................................",
"........................................",
"........................................",
"........................................",
"........................................",
"........................................",
"........................................",
"........................................",
"........................................",
"........................................"};
