/* XPM */
static const char * n2_xpm[] = {
"40 40 78 1",
" 	c None",
".	c #90340B",
"+	c #8F3516",
"@	c #85403D",
"#	c #764B58",
"$	c #65556C",
"%	c #505E7C",
"&	c #3E6285",
"*	c #2A658B",
"=	c #1B678E",
"-	c #15678F",
";	c #2B658B",
">	c #436183",
",	c #605871",
"'	c #804448",
")	c #6C5166",
"!	c #0B6890",
"~	c #595A76",
"{	c #8E381E",
"]	c #575A77",
"^	c #5C5974",
"/	c #396387",
"(	c #11688F",
"_	c #883E38",
":	c #8C3A27",
"<	c #0E6890",
"[	c #476081",
"}	c #6D5065",
"|	c #814345",
"1	c #8B3929",
"2	c #8D3720",
"3	c #824345",
"4	c #535C7B",
"5	c #7A4955",
"6	c #804549",
"7	c #5E5874",
"8	c #853F3E",
"9	c #903415",
"0	c #446082",
"a	c #784A56",
"b	c #63556F",
"c	c #834242",
"d	c #545C79",
"e	c #356488",
"f	c #873E38",
"g	c #6D5265",
"h	c #466082",
"i	c #8F3613",
"j	c #8A3C32",
"k	c #366387",
"l	c #883D33",
"m	c #7F464D",
"n	c #316489",
"o	c #3F6184",
"p	c #893C34",
"q	c #8F3510",
"r	c #6A5368",
"s	c #13688F",
"t	c #535D7B",
"u	c #8D3722",
"v	c #8A3B2C",
"w	c #4F5D7D",
"x	c #6B5367",
"y	c #7E464C",
"z	c #336489",
"A	c #7F454B",
"B	c #6A5269",
"C	c #8B3A2B",
"D	c #8A3A2F",
"E	c #4E5D7E",
"F	c #6C5266",
"G	c #7E474D",
"H	c #30648A",
"I	c #22668D",
"J	c #873D39",
"K	c #4A5F80",
"L	c #66546C",
"M	c #754C5B",
"........................................",
"........................................",
"........................................",
"........................................",
"........................................",
"........................................",
"........................................",
"........................................",
"............+@#$%&*=-;>,'...............",
"............)!!!!!!!!!!!!~{.............",
"............]!!!!!!!!!!!!!^.............",
"............/!!!!!!!!!!!!!(_............",
"...........:<![}|1234!!!!!!5............",
"...........678......90!!!!!a............",
".....................b!!!!!c............",
".....................d!!!!e9............",
"....................f=!!!!g.............",
"...................2h!!!!>i.............",
"..................j[!!!!kl..............",
".................mn!!!!op...............",
"...............qrs!!!!tu................",
"..............vw!!!!sx9.................",
".............yn!!!!zA...................",
"...........qBs!!!!%C....................",
"..........DE!!!!-F9.....................",
".........GH!!!!e'.......................",
".........*!!!!!!!!!!!!!!Iq..............",
"........J!!!!!!!!!!!!!!!K...............",
"........a!!!!!!!!!!!!!!!b...............",
"........L!!!!!!!!!!!!!!!M...............",
"........................................",
"........................................",
"........................................",
"........................................",
"........................................",
"........................................",
"........................................",
"........................................",
"........................................",
"........................................"};
