/* XPM */
static const char * n3_xpm[] = {
"40 40 87 1",
" 	c None",
".	c #90340B",
"+	c #8B3A2B",
"@	c #7B4951",
"#	c #685369",
"$	c #505E7C",
"%	c #416184",
"&	c #336489",
"*	c #1B678E",
"=	c #2B658B",
"-	c #426083",
";	c #5A5975",
">	c #774A58",
",	c #8F3619",
"'	c #8F3510",
")	c #22668D",
"!	c #0B6890",
"~	c #3B6286",
"{	c #85403D",
"]	c #386487",
"^	c #754C5A",
"/	c #7E464D",
"(	c #695368",
"_	c #525C7C",
":	c #6E5063",
"<	c #804449",
"[	c #873E3A",
"}	c #8D3722",
"|	c #8D3824",
"1	c #84413E",
"2	c #64566C",
"3	c #11688F",
"4	c #774B59",
"5	c #5B5A75",
"6	c #80444A",
"7	c #5D5874",
"8	c #2D658B",
"9	c #8F3613",
"0	c #873D36",
"a	c #69536A",
"b	c #8C3A27",
"c	c #85403F",
"d	c #6D5065",
"e	c #4E5D7E",
"f	c #8F3516",
"g	c #4A5F80",
"h	c #24668D",
"i	c #406185",
"j	c #844140",
"k	c #853F3E",
"l	c #15678F",
"m	c #6A5269",
"n	c #764C59",
"o	c #8E3517",
"p	c #883D33",
"q	c #784A56",
"r	c #466082",
"s	c #4D5D7E",
"t	c #8D3720",
"u	c #2A658B",
"v	c #3C6286",
"w	c #4B5E7F",
"x	c #535C7B",
"y	c #824446",
"z	c #695268",
"A	c #8A3C32",
"B	c #744D5D",
"C	c #863F3B",
"D	c #8E381E",
"E	c #883D36",
"F	c #7A4954",
"G	c #5A5A77",
"H	c #7B4853",
"I	c #6B5166",
"J	c #0E6890",
"K	c #66546C",
"L	c #893D33",
"M	c #485F81",
"N	c #7D474E",
"O	c #4C5E7E",
"P	c #2F658A",
"Q	c #17678F",
"R	c #1D678E",
"S	c #3F6184",
"T	c #555B79",
"U	c #6C5166",
"V	c #844141",
"........................................",
"........................................",
"........................................",
"........................................",
"........................................",
"........................................",
"........................................",
"........................................",
".............+@#$%&**=-;>,..............",
"............')!!!!!!!!!!!~{.............",
"............{!!!!!!!!!!!!!],............",
"............^!!!!!!!!!!!!!!/............",
"............(_:<[}|123!!!!!4............",
".....................5!!!!!6............",
".....................7!!!!89............",
"....................0)!!!!a.............",
".................bcd8!!!!ef.............",
"..............g!!!!!!!!haf..............",
".............'h!!!!!!!ij................",
".............k!!!!!!!!!lm...............",
".............n!!!!!!!!!!!4..............",
"................opqr!!!!!s..............",
"...................tu!!!!v..............",
"....................&!!!!w..............",
".........xy........n!!!!!z..............",
"........A!!eBC}DEFG3!!!!*0..............",
"........H!!!!!!!!!!!!!!!I...............",
"........a!!!!!!!!!!!!!JK................",
"........LG3!!!!!!!!!!MN.................",
"..........0zOPQR=STUV...................",
"........................................",
"........................................",
"........................................",
"........................................",
"........................................",
"........................................",
"........................................",
"........................................",
"........................................",
"........................................"};
