/* XPM */
static const char * n4_xpm[] = {
"40 40 67 1",
" 	c None",
".	c #90340B",
"+	c #8B3929",
"@	c #3C6286",
"#	c #0B6890",
"$	c #555C79",
"%	c #8E371B",
"&	c #4A5F80",
"*	c #6B5367",
"=	c #903415",
"-	c #595A76",
";	c #7C4750",
">	c #66556C",
",	c #8B3A2B",
"'	c #734E5D",
")	c #19678E",
"!	c #366387",
"~	c #7C4851",
"{	c #15678F",
"]	c #476081",
"^	c #535D7B",
"/	c #565B78",
"(	c #844141",
"_	c #24668D",
":	c #386487",
"<	c #8A3B2C",
"[	c #3A6386",
"}	c #6B5166",
"|	c #893C32",
"1	c #336489",
"2	c #29658C",
"3	c #853F3E",
"4	c #8C3A27",
"5	c #0E6890",
"6	c #7D464F",
"7	c #8D3824",
"8	c #426083",
"9	c #7F464D",
"0	c #7E464D",
"a	c #8B3A2C",
"b	c #8F3613",
"c	c #515D7C",
"d	c #764C59",
"e	c #6D5265",
"f	c #376388",
"g	c #5F5771",
"h	c #6A5368",
"i	c #575A77",
"j	c #565B79",
"k	c #6C5167",
"l	c #5C5874",
"m	c #396387",
"n	c #774B58",
"o	c #4E5D7E",
"p	c #8F3619",
"q	c #7D474E",
"r	c #8F3510",
"s	c #406184",
"t	c #8C3824",
"u	c #85403D",
"v	c #1B678E",
"w	c #754C5A",
"x	c #466082",
"y	c #63556F",
"z	c #605871",
"A	c #724E5E",
"B	c #585B77",
"........................................",
"........................................",
"........................................",
"........................................",
"........................................",
"........................................",
"........................................",
"........................................",
"...................+@#####$.............",
"..................%&######*.............",
".................=-#######;.............",
".................>########,.............",
"................'###)####!..............",
"...............~{##]^####/..............",
"..............(_##:<[####}..............",
".............|1##2345####6..............",
"............78##)9.0#####a..............",
"...........bc###d..e####f...............",
"...........g###h...i####j...............",
"..........k###l....m####k...............",
".........n5##op...45####q...............",
"........r_##st....0#####+...............",
"........u#################vp............",
"........w#################x.............",
"........y#################z.............",
"........&#################A.............",
".................0#####+................",
".................e####:.................",
".................B####j.................",
".................[####}.................",
"........................................",
"........................................",
"........................................",
"........................................",
"........................................",
"........................................",
"........................................",
"........................................",
"........................................",
"........................................"};
