/* XPM */
static const char * n8_xpm[] = {
"40 40 95 2",
"  	c None",
". 	c #90340B",
"+ 	c #883D36",
"@ 	c #6E5063",
"# 	c #545C79",
"$ 	c #3C6286",
"% 	c #26668D",
"& 	c #15678F",
"* 	c #1B678E",
"= 	c #2D658B",
"- 	c #466082",
"; 	c #605771",
"> 	c #7F454B",
", 	c #8C3926",
"' 	c #5E5874",
") 	c #0B6890",
"! 	c #555B79",
"~ 	c #8E381E",
"{ 	c #8B3929",
"] 	c #3F6184",
"^ 	c #62566F",
"/ 	c #595A76",
"( 	c #2F658A",
"_ 	c #893C32",
": 	c #0E6890",
"< 	c #426083",
"[ 	c #7D464F",
"} 	c #8C3824",
"| 	c #8D3722",
"1 	c #7B4752",
"2 	c #27658C",
"3 	c #1E678E",
"4 	c #754C5B",
"5 	c #8A3B2C",
"6 	c #5D5973",
"7 	c #446082",
"8 	c #704F62",
"9 	c #3A6386",
"0 	c #903415",
"a 	c #804549",
"b 	c #6F5162",
"c 	c #8B3A2B",
"d 	c #8E3620",
"e 	c #844141",
"f 	c #585B77",
"g 	c #456082",
"h 	c #8E371B",
"i 	c #5C5974",
"j 	c #505E7C",
"k 	c #8A3A2F",
"l 	c #744D5C",
"m 	c #3E6285",
"n 	c #7B4853",
"o 	c #834244",
"p 	c #20678D",
"q 	c #336489",
"r 	c #714F5F",
"s 	c #6C5266",
"t 	c #6D5265",
"u 	c #6E5164",
"v 	c #873D39",
"w 	c #85403F",
"x 	c #844140",
"y 	c #11688F",
"z 	c #7F464D",
"A 	c #8D3720",
"B 	c #24668D",
"C 	c #705060",
"D 	c #64566C",
"E 	c #4D5D7E",
"F 	c #6F4F63",
"G 	c #3B6387",
"H 	c #65546D",
"I 	c #893D33",
"J 	c #7C4850",
"K 	c #19678E",
"L 	c #5B5A75",
"M 	c #605772",
"N 	c #834242",
"O 	c #5E5872",
"P 	c #485F80",
"Q 	c #7A4955",
"R 	c #2A658B",
"S 	c #804449",
"T 	c #714E60",
"U 	c #1D678E",
"V 	c #535C7B",
"W 	c #873E38",
"X 	c #6C5167",
"Y 	c #505D7C",
"Z 	c #21678D",
"` 	c #13688F",
" .	c #366387",
"..	c #695268",
"+.	c #84413E",
". . . . . . . . . . . . . . . . . . . . . . . . . . . . . . . . . . . . . . . . ",
". . . . . . . . . . . . . . . . . . . . . . . . . . . . . . . . . . . . . . . . ",
". . . . . . . . . . . . . . . . . . . . . . . . . . . . . . . . . . . . . . . . ",
". . . . . . . . . . . . . . . . . . . . . . . . . . . . . . . . . . . . . . . . ",
". . . . . . . . . . . . . . . . . . . . . . . . . . . . . . . . . . . . . . . . ",
". . . . . . . . . . . . . . . . . . . . . . . . . . . . . . . . . . . . . . . . ",
". . . . . . . . . . . . . . . . . . . . . . . . . . . . . . . . . . . . . . . . ",
". . . . . . . . . . . . . . . . . . . . . . . . . . . . . . . . . . . . . . . . ",
". . . . . . . . . . . . . . . + @ # $ % & * = - ; > . . . . . . . . . . . . . . ",
". . . . . . . . . . . . . , ' & ) ) ) ) ) ) ) ) ) ) ! ~ . . . . . . . . . . . . ",
". . . . . . . . . . . . { ] ) ) ) ) ) ) ) ) ) ) ) ) ) ^ . . . . . . . . . . . . ",
". . . . . . . . . . . . / ) ) ) ) ) ) ) ) ) ) ) ) ) ) ( . . . . . . . . . . . . ",
". . . . . . . . . . . _ : ) ) ) ) < [ } | 1 2 ) ) ) ) 3 . . . . . . . . . . . . ",
". . . . . . . . . . . 4 ) ) ) ) * 5 . . . . 6 ) ) ) ) 7 . . . . . . . . . . . . ",
". . . . . . . . . . . 8 ) ) ) ) 9 . . . . 0 7 ) ) ) ) @ . . . . . . . . . . . . ",
". . . . . . . . . . . a ) ) ) ) ) b c d e f ) ) ) ) g h . . . . . . . . . . . . ",
". . . . . . . . . . . . i ) ) ) ) ) ) ) ) ) ) ) ) j k . . . . . . . . . . . . . ",
". . . . . . . . . . . . . l m ) ) ) ) ) ) ) ) # n . . . . . . . . . . . . . . . ",
". . . . . . . . . . . . o i p ) ) ) ) ) ) ) ) q r . . . . . . . . . . . . . . . ",
". . . . . . . . . . 0 s & ) ) ) ) ) ) ) ) ) ) ) ) ^ . . . . . . . . . . . . . . ",
". . . . . . . . . . t ) ) ) ) % u v ~ w ! ) ) ) ) ) x . . . . . . . . . . . . . ",
". . . . . . . . . w & ) ) ) y z . . . . A B ) ) ) ) C . . . . . . . . . . . . . ",
". . . . . . . . . D ) ) ) ) E . . . . . . q ) ) ) ) F . . . . . . . . . . . . . ",
". . . . . . . . . G ) ) ) ) H . . . . . I y ) ) ) ) J . . . . . . . . . . . . . ",
". . . . . . . . 0 K ) ) ) ) L . . . . . M ) ) ) ) * A . . . . . . . . . . . . . ",
". . . . . . . . . 3 ) ) ) ) K 8 I | N i ) ) ) ) ) O . . . . . . . . . . . . . . ",
". . . . . . . . . P ) ) ) ) ) ) ) ) ) ) ) ) ) ) = _ . . . . . . . . . . . . . . ",
". . . . . . . . . Q ) ) ) ) ) ) ) ) ) ) ) ) ) R S . . . . . . . . . . . . . . . ",
". . . . . . . . . . T U ) ) ) ) ) ) ) ) ) ) V W . . . . . . . . . . . . . . . . ",
". . . . . . . . . . . I X Y q Z ` B  .j ..+.. . . . . . . . . . . . . . . . . . ",
". . . . . . . . . . . . . . . . . . . . . . . . . . . . . . . . . . . . . . . . ",
". . . . . . . . . . . . . . . . . . . . . . . . . . . . . . . . . . . . . . . . ",
". . . . . . . . . . . . . . . . . . . . . . . . . . . . . . . . . . . . . . . . ",
". . . . . . . . . . . . . . . . . . . . . . . . . . . . . . . . . . . . . . . . ",
". . . . . . . . . . . . . . . . . . . . . . . . . . . . . . . . . . . . . . . . ",
". . . . . . . . . . . . . . . . . . . . . . . . . . . . . . . . . . . . . . . . ",
". . . . . . . . . . . . . . . . . . . . . . . . . . . . . . . . . . . . . . . . ",
". . . . . . . . . . . . . . . . . . . . . . . . . . . . . . . . . . . . . . . . ",
". . . . . . . . . . . . . . . . . . . . . . . . . . . . . . . . . . . . . . . . ",
". . . . . . . . . . . . . . . . . . . . . . . . . . . . . . . . . . . . . . . . "};
