/* XPM */
static const char * n9_xpm[] = {
"40 40 90 1",
" 	c None",
".	c #90340B",
"+	c #8F3516",
"@	c #794955",
"#	c #5C5974",
"$	c #3E6285",
"%	c #29658C",
"&	c #17678F",
"*	c #316489",
"=	c #495F80",
"-	c #6C5266",
";	c #8B3B2D",
">	c #7A4954",
",	c #366387",
"'	c #0B6890",
")	c #2C658B",
"!	c #7B4853",
"~	c #903415",
"{	c #63556F",
"]	c #1D678E",
"^	c #814345",
"/	c #64566F",
"(	c #7B4752",
"_	c #555B79",
":	c #834242",
"<	c #8D3720",
"[	c #844141",
"}	c #485F80",
"|	c #844040",
"1	c #406185",
"2	c #505E7C",
"3	c #824143",
"4	c #734E5D",
"5	c #7F4549",
"6	c #66546C",
"7	c #66556C",
"8	c #2D658B",
"9	c #65556C",
"0	c #535C7B",
"a	c #436183",
"b	c #6A5368",
"c	c #685369",
"d	c #30648A",
"e	c #744D5C",
"f	c #62566E",
"g	c #883D33",
"h	c #8C3926",
"i	c #7D464F",
"j	c #406184",
"k	c #804549",
"l	c #6F5162",
"m	c #1E678E",
"n	c #8E371B",
"o	c #8D3722",
"p	c #336489",
"q	c #4F5C7C",
"r	c #396387",
"s	c #2E658A",
"t	c #724E5F",
"u	c #6B5367",
"v	c #476081",
"w	c #15678F",
"x	c #744D5D",
"y	c #84413E",
"z	c #11688F",
"A	c #27658C",
"B	c #585A77",
"C	c #893B30",
"D	c #8E3517",
"E	c #5D5874",
"F	c #3B6286",
"G	c #8E3620",
"H	c #8A3C32",
"I	c #24668D",
"J	c #68536A",
"K	c #8E381E",
"L	c #85403F",
"M	c #6F5062",
"N	c #3A6386",
"O	c #814449",
"P	c #7B4951",
"Q	c #69536A",
"R	c #326489",
"S	c #7F454B",
"T	c #873D39",
"U	c #605771",
"V	c #8B3A2B",
"W	c #784A56",
"X	c #19678E",
"Y	c #714E60",
"........................................",
"........................................",
"........................................",
"........................................",
"........................................",
"........................................",
"........................................",
"........................................",
"...............+@#$%&*=-;...............",
"..............>,'''''''')!..............",
"............~{''''''''''']^.............",
"............/'''''''''''''=.............",
"...........('''''_:<[}'''''|............",
"..........~1''''2~...3'''''4............",
"..........5'''''^....;'''''6............",
"..........7''''8~....:'''''9............",
"..........0''''a.....b'''''c............",
"..........}''''d~...;d'''''e............",
"..........0'''''fghij''''''k............",
"..........l'''''''''''''''mn............",
"..........op''''''''''''''q.............",
"...........[*'''''''rs''''t.............",
"............huv%ws2xyz'''A<.............",
"...................~2''''c..............",
"..........BC......DE''''FG..............",
".........H'IJ|GKLMN''''mO...............",
".........!''''''''''''wP................",
".........Q'''''''''''RS.................",
".........Tv'''''''']UV..................",
"..........~W_RXAF_YH....................",
"........................................",
"........................................",
"........................................",
"........................................",
"........................................",
"........................................",
"........................................",
"........................................",
"........................................",
"........................................"};
