/* XPM */
static const char * p_xpm[] = {
"40 40 77 1",
" 	c None",
".	c #90340B",
"+	c #734D5C",
"@	c #0B6890",
"#	c #396387",
"$	c #8F3516",
"%	c #764C59",
"&	c #505E7C",
"*	c #316489",
"=	c #1B678E",
"-	c #346488",
";	c #5C5974",
">	c #84413E",
",	c #605771",
"'	c #575A77",
")	c #86403C",
"!	c #456082",
"~	c #7A4954",
"{	c #476081",
"]	c #585A77",
"^	c #2C658B",
"/	c #20678D",
"(	c #893D33",
"_	c #8F3613",
":	c #1D678E",
"<	c #426083",
"[	c #7D474E",
"}	c #8E381E",
"|	c #8A3B2C",
"1	c #65556C",
"2	c #834143",
"3	c #426182",
"4	c #8D3824",
"5	c #485F81",
"6	c #446082",
"7	c #824244",
"8	c #2F658A",
"9	c #485F80",
"0	c #67546B",
"a	c #30648A",
"b	c #466082",
"c	c #6B5266",
"d	c #7C4751",
"e	c #3F6184",
"f	c #615671",
"g	c #844040",
"h	c #883E38",
"i	c #0E6890",
"j	c #7A4852",
"k	c #734D5D",
"l	c #336489",
"m	c #605772",
"n	c #6E5164",
"o	c #824446",
"p	c #724E5F",
"q	c #26668D",
"r	c #794955",
"s	c #8B3A2C",
"t	c #4F5D7D",
"u	c #903415",
"v	c #62576F",
"w	c #8C3926",
"x	c #834242",
"y	c #8C3A27",
"z	c #64566F",
"A	c #5A5975",
"B	c #8D3722",
"C	c #3A6386",
"D	c #774B58",
"E	c #4C5E7E",
"F	c #2B658B",
"G	c #386487",
"H	c #5D5874",
"I	c #814347",
"J	c #585B77",
"K	c #6D5265",
"L	c #7E464D",
"........................................",
"........................................",
"........................................",
"........................................",
"........................................",
"........................................",
"........................................",
"........................................",
"........................................",
"........................................",
"........................................",
"........................................",
"........................................",
"........................................",
"...........+@@@@#.$%&*=-;>..............",
"...........,@@@@')!@@@@@@=~.............",
"...........{@@@@]^@@@@@@@@/(............",
".........._:@@@@@<[}|1@@@@@1............",
"..........2@@@@@34....5@@@@6............",
"..........+@@@@@7.....1@@@@8............",
"..........,@@@@9......0@@@@a............",
"..........b@@@@c......;@@@@{............",
"........._:@@@@d......e@@@@f............",
".........2@@@@@g.....hi@@@@j............",
".........k@@@@@7.....1@@@@l_............",
".........m@@@@@n....o=@@@@p.............",
".........b@@@@@qr}spq@@@@tu.............",
"........_:@@@@v@@@@@@@@@6w..............",
"........x@@@@iyz@@@@@@@AB...............",
"........k@@@@C..DEF=GHI.................",
"........m@@@@J..........................",
"........b@@@@K..........................",
"......._:@@@@L..........................",
".......x@@@@@y..........................",
".......k@@@@#...........................",
".......m@@@@'...........................",
"........................................",
"........................................",
"........................................",
"........................................"};
