/* XPM */
static const char * q_xpm[] = {
"40 40 77 1",
" 	c None",
".	c #90340B",
"+	c #8F3516",
"@	c #754C5B",
"#	c #525C7C",
"$	c #30648A",
"%	c #1B678E",
"&	c #356488",
"*	c #5A5975",
"=	c #844140",
"-	c #814347",
";	c #0B6890",
">	c #0E6890",
",	c #8C3824",
"'	c #85403F",
")	c #3F6184",
"!	c #21678D",
"~	c #7D464E",
"{	c #705060",
"]	c #3B6286",
"^	c #804449",
"/	c #22668D",
"(	c #316489",
"_	c #555B79",
":	c #585A77",
"<	c #873E38",
"[	c #27658C",
"}	c #426083",
"|	c #8E381E",
"1	c #8A3C32",
"2	c #64566F",
"3	c #6D5065",
"4	c #4E5E7D",
"5	c #416184",
"6	c #8D3824",
"7	c #456082",
"8	c #7E464C",
"9	c #7F4549",
"0	c #814449",
"a	c #66546C",
"b	c #903415",
"c	c #2E658A",
"d	c #695368",
"e	c #5A5A77",
"f	c #883D36",
"g	c #7B4951",
"h	c #3C6286",
"i	c #6E5164",
"j	c #834242",
"k	c #873E3A",
"l	c #824446",
"m	c #63556F",
"n	c #804549",
"o	c #17678F",
"p	c #3B6387",
"q	c #386487",
"r	c #26668D",
"s	c #794955",
"t	c #8B3A2B",
"u	c #714E60",
"v	c #24668D",
"w	c #595A76",
"x	c #734E5D",
"y	c #4F5C7C",
"z	c #396387",
"A	c #5E5874",
"B	c #605871",
"C	c #8C3A27",
"D	c #15678F",
"E	c #784B57",
"F	c #4D5E7E",
"G	c #2A658B",
"H	c #1D678E",
"I	c #5C5874",
"J	c #8C3926",
"K	c #8E3620",
"L	c #7F464D",
"........................................",
"........................................",
"........................................",
"........................................",
"........................................",
"........................................",
"........................................",
"........................................",
"........................................",
"........................................",
"........................................",
"........................................",
"........................................",
"........................................",
"..............+@#$%&*=.-;;;;>,..........",
".............');;;;;;!~{;;;;]...........",
"............^/;;;;;;;;(_;;;;:...........",
"...........<[;;;;}~|12;;;;;;3...........",
"...........4;;;;56....7;;;;;8...........",
"..........9;;;;;0.....2;;;;>,...........",
"..........*;;;;7......a;;;;]............",
".........bc;;;;d......e;;;;:............",
".........f;;;;;g......h;;;;i............",
".........9;;;;;j.....k;;;;;8............",
".........9;;;;;l.....m;;;;>,............",
".........<;;;;;i....no;;;;p.............",
"..........q;;;;rs|tuv;;;;;w.............",
"..........x;;;;;;;;;yz;;;;i.............",
"...........A;;;;;;>BCD;;;;8.............",
"............EFGHzI0.0;;;;>J.............",
"....................{;;;;p..............",
"....................I;;;;w..............",
"....................5;;;;i..............",
"...................KD;;;;L..............",
"...................-;;;;>J..............",
"...................u;;;;p...............",
"........................................",
"........................................",
"........................................",
"........................................"};
