/* XPM */
static const char * r_xpm[] = {
"40 40 38 1",
" 	c None",
".	c #90340B",
"+	c #734D5C",
"@	c #0B6890",
"#	c #396387",
"$	c #8E371B",
"%	c #724E5F",
"&	c #4D5E7E",
"*	c #30648A",
"=	c #11688F",
"-	c #466082",
";	c #605771",
">	c #575A77",
",	c #834143",
"'	c #3E6285",
")	c #5F5772",
"!	c #476081",
"~	c #27658C",
"{	c #724E5E",
"]	c #8F3613",
"^	c #1D678E",
"/	c #824345",
"(	c #754C5B",
"_	c #8A3A2F",
":	c #8D3720",
"<	c #804549",
"[	c #555B79",
"}	c #8E3517",
"|	c #456082",
"1	c #8C3824",
"2	c #873D39",
"3	c #5D5973",
"4	c #7B4951",
"5	c #8C3A27",
"6	c #605772",
"7	c #6C5166",
"8	c #7D464E",
"9	c #8C392A",
"........................................",
"........................................",
"........................................",
"........................................",
"........................................",
"........................................",
"........................................",
"........................................",
"........................................",
"........................................",
"........................................",
"........................................",
"........................................",
"........................................",
"..............+@@@@#.$%&*=-.............",
"..............;@@@@>,'@@@@).............",
"..............!@@@@>~@@@@@{.............",
".............]^@@@@@@@@@@@/.............",
".............,@@@@@@#(_:<[}.............",
".............+@@@@@|1...................",
".............;@@@@^2....................",
".............-@@@@3.....................",
"............]^@@@@4.....................",
"............,@@@@@5.....................",
"............+@@@@#......................",
"............6@@@@>......................",
"............-@@@@7......................",
"...........]^@@@@8......................",
"...........,@@@@@9......................",
"...........+@@@@#.......................",
"........................................",
"........................................",
"........................................",
"........................................",
"........................................",
"........................................",
"........................................",
"........................................",
"........................................",
"........................................"};
