/* XPM */
static const char * t_xpm[] = {
"40 40 39 1",
" 	c None",
".	c #90340B",
"+	c #316489",
"@	c #0B6890",
"#	c #764B58",
"$	c #893B30",
"%	c #863E3A",
"&	c #7B4853",
"*	c #24668D",
"=	c #903415",
"-	c #69536A",
";	c #4C5E7E",
">	c #535D7B",
",	c #64566F",
"'	c #68536A",
")	c #4B5E7F",
"!	c #505E7C",
"~	c #2D658B",
"{	c #685369",
"]	c #4D5E7E",
"^	c #515C7B",
"/	c #65546D",
"(	c #2F658A",
"_	c #774A58",
":	c #893C32",
"<	c #863F39",
"[	c #7A4955",
"}	c #26668D",
"|	c #774B59",
"1	c #8C3A27",
"2	c #814449",
"3	c #8C3824",
"4	c #11688F",
"5	c #585B77",
"6	c #8E3517",
"7	c #6C5166",
"8	c #476081",
"9	c #27658C",
"0	c #7A4852",
"........................................",
"........................................",
"........................................",
"........................................",
"........................................",
"........................................",
"........................................",
"........................................",
"........................................",
"................+@@@@#..................",
"...............$@@@@@%..................",
"...............&@@@@*=..................",
"...............-@@@@;...................",
"...............>@@@@,...................",
"............'@@@@@@@@@@@@)..............",
"............!@@@@@@@@@@@@,..............",
"............~@@@@@@@@@@@@#..............",
"..............{@@@@]....................",
"..............^@@@@/....................",
"..............(@@@@_....................",
".............:@@@@@<....................",
".............[@@@@}=....................",
".............{@@@@].....................",
".............^@@@@/.....................",
".............(@@@@|.....................",
"............1@@@@@2.....................",
"............<@@@@@'3....................",
"............34@@@@@@@@>.................",
".............5@@@@@@@@-.................",
".............67894@@@@0.................",
"........................................",
"........................................",
"........................................",
"........................................",
"........................................",
"........................................",
"........................................",
"........................................",
"........................................",
"........................................"};
