/* XPM */
static const char * v_xpm[] = {
"40 40 67 1",
" 	c None",
".	c #90340B",
"+	c #7F464D",
"@	c #0B6890",
"#	c #19678E",
"$	c #8F3613",
"%	c #804448",
"&	c #2A658B",
"*	c #8B3A2B",
"=	c #8D3824",
"-	c #11688F",
";	c #853F3E",
">	c #903415",
",	c #466082",
"'	c #724E5F",
")	c #3D6285",
"!	c #784A56",
"~	c #754C5B",
"{	c #456082",
"]	c #8F3510",
"^	c #5A5975",
"/	c #695268",
"(	c #8D3722",
"_	c #336489",
":	c #824446",
"<	c #6F4F63",
"[	c #575A77",
"}	c #695368",
"|	c #5F5772",
"1	c #804449",
"2	c #3F6184",
"3	c #893C34",
"4	c #20678D",
"5	c #2C658B",
"6	c #8B3929",
"7	c #13688F",
"8	c #17678F",
"9	c #8F3619",
"0	c #5A5A77",
"a	c #734D5D",
"b	c #406184",
"c	c #85403F",
"d	c #814345",
"e	c #0E6890",
"f	c #485F81",
"g	c #5C5974",
"h	c #784B57",
"i	c #495F80",
"j	c #834244",
"k	c #705060",
"l	c #764B58",
"m	c #615770",
"n	c #814347",
"o	c #525C7C",
"p	c #356488",
"q	c #2E658A",
"r	c #8C3A27",
"s	c #8E371B",
"t	c #426083",
"u	c #4A6080",
"v	c #5E5874",
"w	c #15678F",
"x	c #844141",
"y	c #63556F",
"z	c #824143",
"A	c #30648A",
"B	c #8C3926",
"........................................",
"........................................",
"........................................",
"........................................",
"........................................",
"........................................",
"........................................",
"........................................",
"........................................",
"........................................",
"........................................",
"........................................",
"........................................",
"........................................",
"..........+@@@@#$......%@@@@&*..........",
"..........=-@@@@;.....>,@@@@'...........",
"...........)@@@@!.....~@@@@{]...........",
"...........^@@@@/....(_@@@-:............",
"...........<@@@@[....}@@@@|.............",
"...........1@@@@2...34@@@56.............",
"...........(7@@@89..0@@@@a..............",
"............b@@@@c.de@@@f>..............",
"............g@@@@h.i@@@7j...............",
"............k@@@@}l@@@@m................",
"............n@@@@op@@@qr................",
"............s8@@@@@@@@~.................",
".............t@@@@@@@u..................",
".............v@@@@@@wx..................",
".............'@@@@@@y...................",
".............z@@@@@AB...................",
"........................................",
"........................................",
"........................................",
"........................................",
"........................................",
"........................................",
"........................................",
"........................................",
"........................................",
"........................................"};
