/* XPM */
static const char * y_xpm[] = {
"40 40 75 1",
" 	c None",
".	c #90340B",
"+	c #794955",
"@	c #0B6890",
"#	c #2E658A",
"$	c #7A4954",
"%	c #356488",
"&	c #8D3722",
"*	c #8B3B2D",
"=	c #883D36",
"-	c #8F3516",
";	c #3E6285",
">	c #784A56",
",	c #3D6285",
"'	c #724E5E",
")	c #4E5D7E",
"!	c #5E5872",
"~	c #66546C",
"{	c #326489",
"]	c #17678F",
"^	c #853F3E",
"/	c #754C5A",
"(	c #4E5E7D",
"_	c #6A5269",
":	c #64566C",
"<	c #883E38",
"[	c #26668D",
"}	c #903415",
"|	c #24668D",
"1	c #316489",
"2	c #863E3A",
"3	c #615671",
"4	c #764C59",
"5	c #5A5A77",
"6	c #764C5A",
"7	c #863F39",
"8	c #4A5F80",
"9	c #724E5F",
"0	c #63556F",
"a	c #565B79",
"b	c #13688F",
"c	c #844141",
"d	c #85403F",
"e	c #495F80",
"f	c #814347",
"g	c #615770",
"h	c #2C658B",
"i	c #20678D",
"j	c #4A6080",
"k	c #2D658B",
"l	c #8C3A27",
"m	c #555B79",
"n	c #734D5D",
"o	c #6E5063",
"p	c #466082",
"q	c #824446",
"r	c #11688F",
"s	c #22668D",
"t	c #5E5874",
"u	c #4F5D7D",
"v	c #29658C",
"w	c #8B3A2B",
"x	c #65556C",
"y	c #705060",
"z	c #446082",
"A	c #485F80",
"B	c #1D678E",
"C	c #844040",
"D	c #535C7B",
"E	c #0E6890",
"F	c #754C5B",
"G	c #893B30",
"H	c #2B658B",
"I	c #68536A",
"J	c #893C32",
"........................................",
"........................................",
"........................................",
"........................................",
"........................................",
"........................................",
"........................................",
"........................................",
"........................................",
"........................................",
"........................................",
"........................................",
"........................................",
"........................................",
"...........+@@@@#.......$@@@@%&.........",
"...........*@@@@@=.....-;@@@@>..........",
"............,@@@@>.....'@@@@)...........",
"............!@@@@~....&{@@@]^...........",
"............/@@@@(...._@@@@:............",
"............<@@@@[}..*|@@@1&............",
".............%@@@@2..3@@@@4.............",
".............5@@@@6.7]@@@8..............",
".............9@@@@0.a@@@bc..............",
".............d@@@@ef@@@@g...............",
".............}h@@@ij@@@kl...............",
"..............m@@@@@@@@n................",
"..............o@@@@@@@p}................",
"..............q@@@@@@rq.................",
"..............-s@@@@@t..................",
"...............u@@@@vw..................",
"...............x@@@@y...................",
"..............l{@@@z-...................",
"............&fA@@@BC....................",
"..........D@@@@@@E/.....................",
"..........1@@@@@BF......................",
".........G@@@HzIJ.......................",
"........................................",
"........................................",
"........................................",
"........................................"};
